<svg xmlns="http://www.w3.org/2000/svg" viewBox="0 0 80.25 76.63"><defs><style>.cls-1{isolation:isolate;}.cls-2{fill:#004f90;}.cls-3{fill:#d4d6d7;mix-blend-mode:multiply;}.cls-4{fill:#8098c1;}.cls-5{fill:#fff;opacity:0.3;}.cls-6{fill:#9f2f33;}.cls-7{fill:#afbfc0;}.cls-8{fill:#e6e6e0;}.cls-9{fill:#132a45;}</style></defs><g class="cls-1"><g id="Layer_1" data-name="Layer 1"><path class="cls-2" d="M44.11,66.52A34.24,34.24,0,0,0,45.66,75c1.08,2.69,1.85,3.83,2.21,3.59s-.06-1.76,1.14-6,2-6.83,2-6.83Z" transform="translate(-1.7 -2)"/><path class="cls-3" d="M48.85,73.16c0-.19.1-.38.16-.58,1.19-4.26,2-6.83,2-6.83l-6.93.77a38.68,38.68,0,0,0,1.07,7A9.43,9.43,0,0,1,48.85,73.16Z" transform="translate(-1.7 -2)"/><path class="cls-2" d="M16,55.47S8.6,64.49,8.3,68.2s4.13,5.86,11,6a101.28,101.28,0,0,0,30.53-4.46c11.79-3.73,24-12.34,29-24.83S82.3,28.39,78.06,24s-9.81-5.08-10.16-5.38,1.25-5.32-2.22-10.46-8.07-6.76-8.36-5.92S61.26,5.86,60.6,10s-1,5.2-.36,6.69A13.32,13.32,0,0,0,62.81,20,2.46,2.46,0,0,0,61,22.89a7.92,7.92,0,0,1-1.13,5.38c-.84,1.26,0,1.85,1.31.84a14.64,14.64,0,0,0,4.07-4.73c1-2,1.67-3.1,1.67-3.1s5.5.95,5.62,4.3-5.38,6-9.75,7.41-6.63,1.26-6.27.9,1.19-1.68,1-2.09a36.66,36.66,0,0,1-2.63-11.66c-.11-5.56,1.32-10.64.18-10.58S50,14.1,48,21.93,47.21,34.67,46.62,35,37.83,37.53,31,34.85,12.61,26.3,10.57,24.56s-5.08-2.21-7.17,2S.53,37.3,4.72,42.08,15.77,53.79,16,55.47Z" transform="translate(-1.7 -2)"/><path class="cls-4" d="M71.29,50.79c-3.59,1.91-7.05,3.91-11.08,4.39a34.82,34.82,0,0,1-14.82-1.52c-3-1-5.34-3-8.09-4.54a7.4,7.4,0,0,0-2.75-1,4.42,4.42,0,0,0-.64-.12c-.24,0-.48-.2-.72-.24-.83-.12-1.55-.32-2.39-.44-1.63-.31-3.15-.43-4.78-.71a26.26,26.26,0,0,1-5-1.4,15.35,15.35,0,0,1-2.91-1c-.28-.16-.56-.36-.88-.52a26.53,26.53,0,0,1-5.38-3.15c-1.27-.92-2.11-2-3.42-2.83-1.16-.76-3.27-1.43-3.79,0a5.58,5.58,0,0,0-.13,4.1,2,2,0,0,0,.19.22C8.9,46.86,15.77,53.79,16,55.47c0,0-7.41,9-7.71,12.73s4.13,5.86,11,6a101.28,101.28,0,0,0,30.53-4.46c11.79-3.73,24-12.34,29-24.83a50.42,50.42,0,0,0,2.7-8.51,38.13,38.13,0,0,1-3.11,6.56C76.35,46.05,74.6,49,71.29,50.79Z" transform="translate(-1.7 -2)"/><path class="cls-3" d="M55.07,67.75A53.57,53.57,0,0,0,62,64.08a33.51,33.51,0,0,0-6.08-11.63C55.85,57.5,56.2,62.76,55.07,67.75Z" transform="translate(-1.7 -2)"/><path class="cls-3" d="M56.68,34.08c-.17,0-.22-.11-.14-.19.36-.36,1.19-1.68,1-2.09L57.24,31a7.06,7.06,0,0,1-1.66,3A10,10,0,0,0,56.68,34.08Z" transform="translate(-1.7 -2)"/><path class="cls-3" d="M66.24,21.47c-2.21,2-3.58,4.7-5.63,7.08a1.75,1.75,0,0,1-1,.76c.13.44.78.46,1.63-.2a14.64,14.64,0,0,0,4.07-4.73c1-2,1.67-3.1,1.67-3.1a10.64,10.64,0,0,1,1.56.41C67.7,21.12,66.87,20.89,66.24,21.47Z" transform="translate(-1.7 -2)"/><path class="cls-3" d="M43,38.79c-1.75.16-3.37,2-2.9,3.5a3.61,3.61,0,0,0,4.43,2.39,3.08,3.08,0,0,0,2.31-2.81C46.79,40.05,44.51,39.47,43,38.79Z" transform="translate(-1.7 -2)"/><path class="cls-5" d="M62.83,19.94a.31.31,0,0,0-.13,0l.11.11a2.38,2.38,0,0,0-1.73,1.79,4.21,4.21,0,0,0,1.75-.94C63,20.62,63.17,20.19,62.83,19.94Z" transform="translate(-1.7 -2)"/><path class="cls-5" d="M67.44,15.41a.43.43,0,0,0,.53.35,13.43,13.43,0,0,0-2.29-7.63C62.59,3.55,58.6,1.77,57.56,2,62.67,4.76,66.84,9.45,67.44,15.41Z" transform="translate(-1.7 -2)"/><path class="cls-5" d="M77.4,23.32c-4.14-3.84-9.16-4.45-9.5-4.73a.17.17,0,0,1-.05-.14c-.16,0-.32.09-.5.12,0,.17-.08.34.09.43,3,1.11,7.85,3.15,6.06,6.91a9.28,9.28,0,0,1-4.3,4.21A29.13,29.13,0,0,1,62.81,33a25,25,0,0,1-3.92,1,43.76,43.76,0,0,1-5.53,1c-1.62.25-4.27.34-4.52-1.37-1.2-8.36.59-16.73,6.23-23.38a1.2,1.2,0,0,0,.24-.59.37.37,0,0,0-.21-.06C54,9.62,50,14.1,48,21.93S47.21,34.67,46.62,35,37.83,37.53,31,34.85,12.61,26.3,10.57,24.56c-1.61-1.38-3.88-2-5.79,0a.56.56,0,0,0,.45.41c1.53.43,3.15.09,4.35,1.2A68.22,68.22,0,0,0,30.06,39.05,42.35,42.35,0,0,0,40,41.69a3.35,3.35,0,0,1,3-2.9l-.34-.17.34.17a2.32,2.32,0,0,1,.59,0,2.32,2.32,0,0,0-.59,0c1.56.68,3.84,1.26,3.84,3.08a2.64,2.64,0,0,1,0,.28A52.84,52.84,0,0,0,64.28,39c6.15-2.14,12.21-6.75,13.23-13.74A4.31,4.31,0,0,0,77.4,23.32Z" transform="translate(-1.7 -2)"/><path class="cls-6" d="M9.86,69.57c-1-.36-.9-2.81,1.37-6.39s5.56-7.3,5.44-7.77S8.42,45.9,8.84,45.6s8.73-1.19,17,3.35,12.67,8.67,12.73,9.33-5.2,7.53-14,10S10.87,69.93,9.86,69.57Z" transform="translate(-1.7 -2)"/><path class="cls-7" d="M9.84,68.49s-3.23-2.6-2.43-3.83,2.75.44,2.75.44S8,62.67,8.82,61.71s2.61.64,2.61.52-1.19-1.79-.59-2.47,2.31,0,2.31,0-1.48-1.54-.88-2.11,2.27.2,2.27.2-1.39-1.08-.75-1.76,2.1-.47,2.1-.47l.07-.35s-1,.66-1.18,0,.51-1.19.51-1.19-1.09.67-1.52.19.35-1.7.35-1.7-1.49,1.22-1.86.56.6-2,.6-2-1.69.51-2,0,.5-1.73.5-1.73-1.29.77-1.85.5.79-1.67.79-1.67-1.67.5-2,0,1-2.47,1-2.47l3,4c1.06,1.38,4,4.76,4.13,5.38s-.25,1.1-.89,2.17-2.81,3.9-4,5.94S9.5,67.71,9.84,68.49Z" transform="translate(-1.7 -2)"/><path class="cls-8" d="M11,47.48c.55-.16.91-.87,1.11-1.55.08,1,.16,2.31,1.2,2.59s1.63-1.2,2.11-2c0,.83-.52,2.07.44,2.47,1.27.52,1.63-1.44,2.23-2.27,0,1.07-.84,2.43.2,3.15,1.31.95,2.19-1.2,2.83-2.16,0,1.16-1,2.47-.16,3.51,1.15-.12,1.59-1.71,2.31-2.51,0,.84-.24,1.67-.16,2.51.08.44.4,1.12.84.92.87-.44,1.27-1.44,1.75-2.23,0,1.07-.76,3.3.76,3.22.8,0,1.19-1.11,1.71-1.79,0,.76-.4,1.43-.2,2.23a.72.72,0,0,0,.92.52c.8-.16,1.27-.84,1.79-1.44-.28,1-.52,2.2.36,2.75s1.32-.83,1.87-1.35c-.16.8-.39,2.31.76,2.27.48,0,.72-.56,1-.92,0,.64.16,1.88.91,1.52a2.84,2.84,0,0,0,1-.78A66.72,66.72,0,0,0,25.82,49a28.85,28.85,0,0,0-16.4-3.48C9.78,46.41,9.91,47.82,11,47.48Z" transform="translate(-1.7 -2)"/><path class="cls-3" d="M36.53,56.11A66.72,66.72,0,0,0,25.82,49a28.85,28.85,0,0,0-16.4-3.48A4.09,4.09,0,0,1,9.6,46c.82-.05,1.65-.09,2.47-.09h0a13.67,13.67,0,0,1,3.65.45l2.11.67a2.58,2.58,0,0,1,.22-.37,3.34,3.34,0,0,1-.05.43c.95.31,1.89.65,2.81,1,.1-.15.18-.3.27-.43a3,3,0,0,1-.07.51c.67.25,1.33.52,2,.79l.24-.3c0,.13,0,.26,0,.4.78.33,1.55.67,2.31,1a2.55,2.55,0,0,1,.14-.24c0,.09,0,.19,0,.29.81.39,1.61.81,2.42,1.24l.07-.1v.14c.78.43,1.56.89,2.34,1.37a1.63,1.63,0,0,0,.17-.2c0,.09-.05.18-.07.26.7.44,1.39.9,2.08,1.38l.22-.24c0,.1,0,.22-.06.35l.07,0a11.14,11.14,0,0,0,1.7,1h0l.07-.08a.49.49,0,0,0,0,.12c.49.35.94.72,1.39,1.1A3.63,3.63,0,0,0,36.53,56.11Z" transform="translate(-1.7 -2)"/><path class="cls-8" d="M36.1,59.2c-.12,0-.4,0-.4,0-.08.52.4.88.76,1.16-.68-.16-1.55-.72-2-.32s.28,1.07.8,1.43c-.84-.12-2-.84-2.52-.12-.31.4,0,1.16.36,1.68-.91-.16-1.95-1.44-2.59-.68s.44,1.59,1,2.19a9.61,9.61,0,0,1-3.43-1.12.31.31,0,0,0-.4.28,4.36,4.36,0,0,0,.8,2.39,26.86,26.86,0,0,1-3-1.83c-.32-.2-.72-.16-.76.28a9.61,9.61,0,0,0,.56,2.79A25.33,25.33,0,0,0,22.15,65a.51.51,0,0,0-.75.36,9.86,9.86,0,0,0,.2,2.87c-1-1-1.8-2.2-3.07-2.87-.4-.24-1,.24-1.08.75a8.8,8.8,0,0,0,0,3.07,10.48,10.48,0,0,1-2-2.83c-.32-.48-.92-1.19-1.32-.48a5.68,5.68,0,0,0-.51,3.31,37.25,37.25,0,0,0-3-3.5.32.32,0,0,0-.32,0,4.83,4.83,0,0,0,0,4c1.49.37,6.29.86,14.4-1.4a26.81,26.81,0,0,0,13.17-8.63A9.56,9.56,0,0,1,36.1,59.2Z" transform="translate(-1.7 -2)"/><path class="cls-3" d="M36.39,59.3c-.11.25-.23.5-.35.74a4.71,4.71,0,0,0,.42.36c-.17,0-.35-.11-.53-.17a11,11,0,0,1-.8,1.21l.1.07-.14,0a12.8,12.8,0,0,1-3.58,3.08h0a21.85,21.85,0,0,1-3,1.47l0,.08-.12,0a32.67,32.67,0,0,1-3.12,1,2,2,0,0,1,.05.24,2.11,2.11,0,0,1-.23-.19l-.73.2c-.92.23-1.84.46-2.77.67l0,.16a1.85,1.85,0,0,1-.14-.14c-1.36.31-2.72.58-4.09.78,0,.11,0,.21,0,.31-.1-.08-.2-.18-.3-.27a28.86,28.86,0,0,1-7.13.22l.18.55c1.49.37,6.29.86,14.4-1.4a26.81,26.81,0,0,0,13.17-8.63A9.35,9.35,0,0,1,36.39,59.3Z" transform="translate(-1.7 -2)"/><path class="cls-9" d="M5,27.59a1.16,1.16,0,0,0-.14-.42c-.08-.1-.22-.21-.35-.16a.63.63,0,0,0-.35.58,6.11,6.11,0,0,0-.08.86.5.5,0,0,0,1,0A4.11,4.11,0,0,0,5,27.59Z" transform="translate(-1.7 -2)"/><path class="cls-9" d="M6.6,27.18c-.08-.2-.39-.31-.51-.07A4.17,4.17,0,0,0,5.7,28c-.09.39-.18.86.28,1a.48.48,0,0,0,.53-.21,1.66,1.66,0,0,0,.08-.74s0-.14,0,0c0-.12,0-.23,0-.35A1.32,1.32,0,0,0,6.6,27.18Z" transform="translate(-1.7 -2)"/><path class="cls-8" d="M46,41.24a2.75,2.75,0,1,0-2.75,2.81A2.78,2.78,0,0,0,46,41.24Z" transform="translate(-1.7 -2)"/><path class="cls-9" d="M42.65,41.52a.8.8,0,0,0-.39-.09.82.82,0,0,0-.35,0c-.57.12-.64.78-.54,1.24a.87.87,0,0,0,1,.72,1,1,0,0,0,.75-1A1,1,0,0,0,42.65,41.52Z" transform="translate(-1.7 -2)"/><path class="cls-9" d="M44.46,35.75a9.6,9.6,0,0,1-.6-1c-.07-.09-.12-.19-.18-.28a2.17,2.17,0,0,1-.07-.24,1.31,1.31,0,0,0-.36-.71v0a.12.12,0,0,0,0-.16c-.27-.29-.6.2-.69.41l-.07.19a.5.5,0,0,0-.08.2c-.1.28-.19.56-.3.83-.23.57-.47,1.13-.73,1.69,0,.11-.09.21-.13.31l-.44.85c-.17.31-.32.63-.5,1s-.37.65-.53,1-.32.72-.47,1.08c0-.09,0,.08-.06.1l-.11.19a1.08,1.08,0,0,0-.15.49.47.47,0,0,0,.79.33c.81-1,1.68-1.85,2.47-2.81l1.18-1.44.53-.67c.19-.24.41-.46.59-.72A.52.52,0,0,0,44.46,35.75Z" transform="translate(-1.7 -2)"/><path class="cls-2" d="M55.4,52.18c-.18.11,4.55,10.76,8.79,16s7.65,8.37,8.25,7.65-3-5.19-4-10.85-1.3-8.16-3.51-9a16.94,16.94,0,0,1-5.26-3.4C59.41,52.12,56.06,51.76,55.4,52.18Z" transform="translate(-1.7 -2)"/></g></g></svg>